<svg version="1.1" id="Layer_1" xmlns="http://www.w3.org/2000/svg" xmlns:xlink="http://www.w3.org/1999/xlink" x="0px" y="0px"
	 width="100%" viewBox="0 0 466 731" enable-background="new 0 0 466 731" xml:space="preserve">
<path fill="#262122" opacity="1.000000" stroke="none" 
	d="
M273.346405,731.774658 
	C253.312439,732.000000 233.624878,732.000000 213.468658,732.000000 
	C207.460022,730.957458 201.814301,731.013733 196.227173,730.643494 
	C189.628693,730.206177 183.543243,728.033875 177.291458,726.360535 
	C173.467194,725.336914 171.818283,722.401367 170.541351,718.968445 
	C164.035400,701.477783 158.596024,683.638611 153.064377,665.829529 
	C151.681076,661.375977 150.220673,656.950012 148.748398,652.526062 
	C148.020477,650.338806 146.841446,649.381165 144.360184,649.508789 
	C130.412430,650.226135 117.359581,646.453918 104.586334,641.329285 
	C93.448738,636.860901 82.754494,631.423096 71.875229,626.395142 
	C66.120872,623.735718 60.225800,621.470337 54.385918,619.043030 
	C42.165920,613.963928 39.412613,609.394531 39.109188,596.238708 
	C38.190224,556.393921 35.272205,516.798950 24.208792,478.207367 
	C19.927429,463.273041 14.175604,448.928162 7.938596,434.327087 
	C7.594398,433.245483 7.452031,432.510803 7.067265,431.475159 
	C6.818887,430.930634 6.715656,430.714020 6.456661,430.169403 
	C6.202975,429.617371 6.105052,429.393280 5.882056,428.819580 
	C5.701936,428.226410 5.646891,427.982819 5.562455,427.364319 
	C3.788706,419.602966 1.133076,412.382935 1.223026,404.310272 
	C1.000000,402.285645 1.000000,400.571289 1.000000,398.428467 
	C1.911564,391.879395 5.378311,387.422150 10.942131,385.271423 
	C28.915901,378.323669 43.139950,365.297363 59.492790,355.727112 
	C70.700401,349.168060 81.727341,342.291595 93.097336,335.999268 
	C99.151833,332.648590 100.432251,328.620361 97.475281,322.343536 
	C96.763329,320.832275 95.880501,319.414459 94.940063,318.041046 
	C88.825859,309.112061 84.833527,299.271301 82.736458,288.707123 
	C81.937569,284.682587 80.098885,282.322815 76.117088,280.953308 
	C59.414448,275.208527 47.891300,264.116516 41.198997,247.591461 
	C34.741955,231.647308 31.402163,215.476242 34.380348,198.313156 
	C35.559578,191.517349 37.477783,184.985138 41.307346,179.189789 
	C42.960861,176.687500 43.402985,174.120682 43.402935,171.181107 
	C43.402748,160.519775 41.647362,149.925812 42.254421,139.249725 
	C42.708061,131.271652 43.088482,123.284386 45.328182,115.534492 
	C48.494900,104.576904 54.478615,95.612885 64.072136,89.275192 
	C66.513283,87.662521 68.593735,85.843796 69.557816,83.037514 
	C76.333267,63.315147 90.731743,50.494736 107.898903,39.917553 
	C133.030472,24.433270 159.425812,12.059011 188.237839,5.064601 
	C198.837021,2.491545 209.528320,1.499542 220.683929,1.224004 
	C232.687561,1.000000 244.375122,1.000000 256.531342,1.000000 
	C261.719482,1.902775 266.561920,1.478399 271.283203,2.256255 
	C299.416748,6.891414 323.637756,19.323427 343.969116,39.234097 
	C351.100067,46.217491 358.007477,53.421467 363.892792,61.580753 
	C382.141693,86.880653 389.747833,115.622139 391.815338,146.232071 
	C393.959259,177.972977 390.924377,209.414703 385.779938,240.652847 
	C381.565796,266.241852 374.804779,291.101990 361.094818,313.563690 
	C358.206299,318.296173 358.550385,320.630890 362.140594,324.853485 
	C366.363770,329.820435 371.390320,333.935181 376.407166,338.079468 
	C385.380371,345.492035 395.011993,352.100006 402.963684,360.766815 
	C409.592255,367.991577 411.538208,376.255829 410.384766,385.683685 
	C409.281860,394.698029 406.160980,403.169769 403.395996,411.699341 
	C393.793610,441.321533 384.778381,471.147552 373.430817,500.179871 
	C373.300934,500.512085 373.249603,500.818604 373.438507,501.499054 
	C380.271942,498.507904 387.170227,495.791229 394.073212,493.086273 
	C403.773071,489.285431 413.723083,486.739746 424.256897,487.248627 
	C438.886505,487.955353 449.655823,494.564941 455.610382,508.170319 
	C461.364838,521.318542 466.492584,534.670227 466.774109,549.674561 
	C467.000000,557.687561 467.000000,565.375183 467.000000,573.531372 
	C465.836975,581.008606 464.718781,587.885315 461.505768,594.504333 
	C456.623627,604.561890 448.884399,610.305359 438.315216,612.366455 
	C423.730804,615.210449 409.141113,614.309998 394.646393,611.365051 
	C391.727234,610.771912 389.428436,609.070068 387.767670,606.696167 
	C385.606873,603.607605 382.711029,602.607605 379.122894,602.911316 
	C373.313721,603.403076 367.511017,603.882751 361.880219,605.558716 
	C356.998352,607.011719 352.437561,608.569946 350.714935,614.323975 
	C349.838776,617.250427 346.999237,619.015503 344.294006,620.359985 
	C340.817078,622.087952 339.651764,624.791260 339.899231,628.499023 
	C340.477234,637.159607 341.775299,645.695923 343.691345,654.163269 
	C345.232574,660.974304 346.925018,667.756592 346.891571,674.852417 
	C346.850006,683.673828 343.264496,689.838379 334.741699,692.907043 
	C330.979950,694.261414 327.317413,695.929993 323.383392,696.713928 
	C320.259094,697.336426 318.831940,698.988770 318.879364,702.218872 
	C318.930725,705.714355 318.830719,709.216736 318.846100,712.714233 
	C318.865143,717.048096 317.114288,720.443298 313.766083,723.078613 
	C308.562439,727.174194 302.842224,729.916931 296.107269,730.559814 
	C288.643799,731.272278 281.179291,731.560425 273.346405,731.774658 
z"/>
<path fill="#FFFFFF" opacity="1.000000" stroke="none" 
	d="
M467.000000,549.531372 
	C464.386108,539.296875 461.842316,528.561584 457.946411,518.238281 
	C455.158112,510.849976 452.388031,503.513550 446.406921,497.725647 
	C440.261719,491.778992 432.912231,489.479950 424.841736,489.058685 
	C412.407715,488.409637 400.852783,492.129913 389.574615,496.950470 
	C383.199677,499.675293 376.747223,502.218719 369.666168,505.115295 
	C375.809723,489.191620 381.427612,473.757538 386.413879,458.102325 
	C393.226471,436.713196 400.710358,415.514160 406.763428,393.913330 
	C413.146576,371.134521 406.412201,365.565002 390.997864,352.227783 
	C381.432281,343.951172 370.887817,336.832581 362.082794,327.641693 
	C355.959045,321.249542 355.454468,319.542450 360.008331,311.898926 
	C371.254181,293.023163 377.666565,272.446747 382.013702,251.093201 
	C384.807068,237.371902 386.729828,223.544418 388.107147,209.601746 
	C389.226776,198.267395 389.023468,186.821701 390.327789,175.605652 
	C391.782074,163.099670 390.535156,150.810944 389.734314,138.557053 
	C388.669952,122.271690 383.445618,106.714722 378.150299,91.250427 
	C372.633911,75.140648 362.743225,61.937817 351.761353,49.482712 
	C331.210358,26.174740 305.481384,11.211281 275.258209,4.202294 
	C269.432617,2.851303 263.424469,1.688155 257.164062,1.392695 
	C325.293945,1.000000 393.587921,1.033778 461.881653,0.912248 
	C465.789886,0.905293 467.140350,1.319457 467.136322,5.876161 
	C466.976227,186.938232 467.000000,368.000458 467.000000,549.531372 
z"/>
<path fill="#FFFFFF" opacity="1.000000" stroke="none" 
	d="
M220.531342,1.000000 
	C216.848633,3.296183 212.187393,2.015880 207.772537,2.801698 
	C186.724792,6.548065 166.356873,12.348825 146.821854,21.023567 
	C128.268082,29.262564 110.708549,39.320866 94.393547,51.353668 
	C84.456749,58.682358 77.116478,68.303726 72.862663,80.175774 
	C71.228226,84.737366 68.745399,88.647995 64.141594,91.612717 
	C51.461197,99.778496 46.506336,112.511482 44.908642,127.052361 
	C44.001217,135.310944 43.349052,143.623108 44.204460,151.786285 
	C44.979424,159.181717 44.198627,166.639267 45.614891,173.927536 
	C46.035084,176.089935 44.955151,177.350021 43.988377,178.701691 
	C35.207512,190.978287 34.195065,205.003342 35.405945,219.256256 
	C36.261696,229.329041 39.680195,238.812408 43.521622,248.259598 
	C50.158417,264.581421 62.007969,274.647705 78.296890,279.846893 
	C82.373528,281.148102 83.709541,283.081665 84.347107,287.106323 
	C86.206131,298.841583 90.945389,309.514343 97.789062,319.225067 
	C99.708221,321.948242 101.092545,324.812622 100.988098,328.215851 
	C100.876595,331.849274 99.765533,334.733917 96.192841,336.619629 
	C77.598587,346.433929 59.820023,357.628662 42.167233,369.019592 
	C36.309124,372.799713 30.576538,376.776276 24.824636,380.718567 
	C19.700155,384.230896 13.252206,384.988312 8.299239,388.989899 
	C5.266887,391.439728 2.946298,394.146698 1.346911,397.898865 
	C1.000000,267.092926 1.016765,136.185867 0.909906,5.278897 
	C0.907035,1.761700 1.522978,0.887282 5.215355,0.894610 
	C76.830917,1.036745 148.446838,1.000000 220.531342,1.000000 
z"/>
<path fill="#FFFFFF" opacity="1.000000" stroke="none" 
	d="
M6.923727,428.001404 
	C7.156741,428.320648 7.127629,428.433655 7.172718,428.470673 
	C7.197761,428.922607 7.322794,429.287872 7.803920,429.818787 
	C8.015022,430.034058 8.021425,429.980743 7.994660,429.978577 
	C8.444922,430.427582 8.485454,431.060638 8.826982,431.894470 
	C13.670697,443.448669 18.791887,454.578766 22.600504,466.211121 
	C28.692358,484.816895 33.106087,503.887054 35.768227,523.235352 
	C37.326622,534.561707 38.711861,545.972107 39.155312,557.492371 
	C39.732685,572.491882 40.804508,587.470337 41.077885,602.495239 
	C41.243034,611.571960 48.543648,615.147278 55.503944,617.634766 
	C67.690063,621.989990 79.083267,627.962280 90.769516,633.344238 
	C102.760536,638.866577 114.862686,644.421753 127.878906,646.636963 
	C133.739426,647.634338 140.072800,649.671509 146.317352,647.100830 
	C147.890137,646.453369 149.391434,647.188293 150.016769,649.321777 
	C155.894028,669.373474 162.130264,689.313110 168.962906,709.063049 
	C170.380661,713.161011 171.835419,717.252136 173.056686,721.409912 
	C173.731018,723.705688 175.625092,724.191589 177.358536,724.684570 
	C188.917938,727.971802 200.604721,730.637817 212.835358,731.606995 
	C143.723831,732.000000 74.447556,731.957581 5.171745,732.114441 
	C1.360286,732.123047 0.916202,731.078430 0.919409,727.678406 
	C1.018042,623.098083 1.000000,518.517700 1.000000,413.468658 
	C2.023942,412.687897 2.627620,413.305847 2.768266,414.121094 
	C3.573929,418.791199 5.749165,423.057892 6.923727,428.001404 
z"/>
<path fill="#FFFFFF" opacity="1.000000" stroke="none" 
	d="
M273.468658,732.000000 
	C275.970764,729.944458 279.311188,731.422913 282.458099,731.021423 
	C292.384460,729.754944 302.496674,729.196594 311.039215,723.002563 
	C314.738037,720.320679 317.856567,717.549500 317.111298,712.139648 
	C316.570679,708.215088 317.297546,704.128052 316.917328,700.165527 
	C316.589233,696.746033 318.223206,695.274170 321.070251,695.104858 
	C326.563629,694.778320 331.234955,692.104614 336.210388,690.307861 
	C342.329559,688.098145 344.603882,683.299622 345.035950,677.142578 
	C345.735870,667.168213 342.332001,657.847046 340.594666,648.272705 
	C339.219849,640.696106 338.187042,633.128723 337.951660,625.427979 
	C337.862579,622.512024 338.972656,620.852844 341.576691,619.766907 
	C346.256866,617.815125 350.116913,614.968567 350.801819,609.470947 
	C351.020996,607.711792 351.895050,607.450256 353.371826,606.738159 
	C362.721558,602.229980 372.657715,601.223083 382.806305,600.956726 
	C385.284882,600.891663 386.858521,601.785950 387.981934,603.864746 
	C390.195984,607.961731 393.516968,609.378113 398.264496,610.266785 
	C408.617279,612.204712 418.945007,612.047180 429.310486,611.966248 
	C445.813080,611.837402 457.323669,603.217468 462.937408,586.875671 
	C464.344360,582.779968 465.163269,578.482300 466.626221,574.138672 
	C467.000000,625.269470 466.946136,676.539124 467.111115,727.808044 
	C467.123199,731.558228 466.160217,732.093323 462.702026,732.086792 
	C399.780609,731.967834 336.858948,732.000000 273.468658,732.000000 
z"/>
<path fill="#A5322E" opacity="1.000000" stroke="none" 
	d="
M7.194332,427.882568 
	C3.960107,423.808411 3.121699,418.445129 1.364770,413.140869 
	C1.000000,410.299988 1.000000,407.599976 0.999999,404.449982 
	C3.077307,411.814850 5.154614,419.629669 7.194332,427.882568 
z"/>
<path fill="#EFD5B6" opacity="1.000000" stroke="none" 
	d="
M325.588196,97.754532 
	C326.168152,99.165138 326.302765,100.112823 328.114227,99.300926 
	C347.016846,90.828697 368.109467,100.253662 375.003571,120.161201 
	C378.473785,130.181885 379.229431,140.675369 379.878265,151.102463 
	C381.067444,170.212555 382.027863,189.376160 379.990997,208.479965 
	C377.910797,227.990463 374.199463,247.146759 367.810944,265.825134 
	C359.869232,289.044617 347.338348,309.516479 332.195496,328.536621 
	C324.871307,337.736115 314.380768,342.661133 304.195740,347.791809 
	C289.653595,355.117340 274.297821,359.853546 257.889160,359.955780 
	C240.154617,360.066284 224.598740,353.095154 210.024811,343.769745 
	C191.660507,332.018951 178.384460,315.262939 165.832809,297.858093 
	C163.724121,294.934021 161.559433,292.050323 158.552155,287.969452 
	C158.668030,296.410706 161.151520,302.713593 164.999344,308.412018 
	C177.410339,326.791992 191.842117,343.265839 210.922424,355.677521 
	C211.277023,356.134247 211.355148,356.383331 211.240204,356.973022 
	C205.115967,356.981293 199.161316,356.154388 193.332535,358.088409 
	C192.392776,358.400208 191.170074,358.544952 190.610428,359.212891 
	C183.209183,368.046265 173.885101,363.187714 165.220673,362.840637 
	C163.083160,362.754974 160.961166,362.282532 158.409668,361.887787 
	C141.162323,349.408478 132.079559,331.666931 124.762650,312.910370 
	C118.927780,297.952942 115.859467,282.239502 114.257965,266.270508 
	C113.810127,261.804993 112.316925,257.877197 109.048599,254.295776 
	C103.835289,253.791061 100.380188,256.874023 96.764297,259.353577 
	C87.815178,265.490326 80.273117,265.713898 71.301071,259.885284 
	C67.249321,257.253113 63.882080,253.919678 60.907238,249.810593 
	C54.148354,235.648193 58.676083,221.976974 61.643272,207.905838 
	C62.036060,207.092056 62.261333,206.624893 62.635338,206.298309 
	C65.106064,204.140808 67.574059,200.931686 71.197334,202.891724 
	C74.800446,204.840866 72.995522,208.490753 72.434563,211.493317 
	C71.177147,218.223740 71.555794,224.464111 74.110512,232.205460 
	C74.072525,227.561996 74.433105,222.960526 75.246964,218.401978 
	C75.510452,216.926147 75.691757,215.432953 76.273361,214.039474 
	C77.670448,210.692123 79.522942,207.606171 83.508156,207.238129 
	C87.306313,206.887360 89.564636,209.532852 91.442505,212.401169 
	C93.583519,215.671432 94.824219,219.493484 97.541397,222.490952 
	C98.361671,215.559021 96.678925,209.377670 92.594551,203.823837 
	C91.337227,202.114136 89.537979,200.665268 89.912277,197.879730 
	C94.739540,195.227097 98.039955,198.116150 101.808365,200.695038 
	C103.468307,202.585190 103.786720,204.595688 103.957359,206.551437 
	C104.366806,211.244019 106.948257,212.661545 111.293251,211.909195 
	C113.911697,211.455811 116.583633,211.296234 119.189835,210.790009 
	C127.331078,209.208710 129.939850,205.201843 128.085571,197.112808 
	C126.305817,189.348877 124.177689,181.656998 122.639313,173.847458 
	C120.673836,163.869736 122.171692,153.952881 124.139671,144.129501 
	C125.509949,137.289612 127.085052,130.490753 128.760834,123.345161 
	C134.694092,100.406052 148.446457,82.931969 164.908691,67.262100 
	C179.488754,53.383804 196.941483,44.441299 216.284668,39.640251 
	C231.445282,35.877338 246.883621,33.022408 262.658752,33.203766 
	C275.288849,33.348969 287.942261,32.485611 300.479248,35.273239 
	C304.867126,36.248894 308.909882,38.267738 313.761963,38.782700 
	C326.419250,45.805553 335.242798,56.470306 343.866272,67.671432 
	C342.389954,70.926285 339.349274,71.151489 336.773010,72.135277 
	C327.443115,75.698013 322.248871,83.314102 322.640106,92.747147 
	C322.728668,94.882469 323.051758,96.705147 325.588196,97.754532 
z"/>
<path fill="#335061" opacity="1.000000" stroke="none" 
	d="
M125.918243,370.764404 
	C136.595993,380.138519 148.852066,386.125763 161.068649,392.166595 
	C166.442673,394.823944 171.802246,397.533386 177.309113,399.890320 
	C180.449738,401.234528 180.363983,403.895905 180.949219,406.422394 
	C184.620773,422.272308 188.122650,438.190704 195.109772,453.013336 
	C198.350418,459.888092 203.747818,462.032043 211.175369,460.090759 
	C212.228668,459.815460 213.502472,458.689941 214.419937,459.743469 
	C215.599350,461.097809 214.094635,462.118622 213.393997,463.159363 
	C212.651169,464.262726 211.889221,465.355408 211.088882,466.417572 
	C200.723709,480.174500 206.288162,485.178284 217.649002,490.683807 
	C231.657150,497.472321 245.194321,505.292389 259.915710,510.579895 
	C261.620789,511.192322 263.200653,512.153320 266.152832,513.594116 
	C258.012848,514.356445 251.132660,514.581726 244.392014,514.727966 
	C226.420807,515.117859 208.586212,517.203979 190.673065,518.227234 
	C179.429153,518.869507 168.258743,520.798584 156.630066,522.164917 
	C153.617004,520.295227 154.074646,517.452026 154.057938,514.864075 
	C153.971893,501.537476 153.843170,488.206635 154.107666,474.885101 
	C154.213501,469.553955 152.997864,465.076385 149.276154,461.259064 
	C147.754990,459.698822 146.772797,457.739777 145.479828,455.476990 
	C144.877960,453.522675 144.904648,451.541412 142.751480,451.285156 
	C140.555237,451.023743 139.610352,452.766235 138.753906,454.426605 
	C136.473160,458.848389 136.275864,463.670807 136.419785,468.449341 
	C136.763824,479.872833 139.097870,491.148102 139.006638,502.623749 
	C138.967789,507.509369 137.525879,512.112427 136.797119,516.853821 
	C136.420273,519.305542 134.946060,520.272034 132.533707,518.747742 
	C128.622253,516.276245 124.708282,513.806702 120.743095,511.423401 
	C119.519783,510.688080 118.031258,509.336060 116.693359,510.573029 
	C115.382523,511.785034 115.682915,513.795654 116.407242,515.263000 
	C117.271561,517.013916 118.681206,518.487854 119.774902,520.134766 
	C122.402458,524.091248 121.294212,526.641296 116.919724,528.324646 
	C112.826080,529.899963 107.242531,529.432068 105.829552,535.764832 
	C104.794518,537.090088 104.342323,538.279846 105.719711,539.002319 
	C109.335587,540.898987 112.411125,543.758789 116.718483,544.450745 
	C122.582909,545.393005 128.436920,546.415527 134.306335,547.338928 
	C136.428146,547.672607 138.572739,547.954834 140.559189,549.656738 
	C143.561172,569.948669 145.153046,590.155090 148.728546,610.108398 
	C149.751801,615.818726 150.127457,621.642151 150.958755,627.390747 
	C151.536484,631.385925 149.727051,632.429932 146.129517,631.947083 
	C126.985817,629.377563 108.874420,623.633179 91.802429,614.570984 
	C82.709122,609.744141 73.533775,605.071777 64.195206,600.038208 
	C61.837471,597.734558 62.308517,595.197327 62.655247,592.727051 
	C65.475746,572.632446 64.301872,552.532349 62.458881,532.473450 
	C59.699123,502.436615 53.981789,472.851288 48.195896,443.288361 
	C46.277920,433.488525 43.519451,423.872894 41.723667,414.040649 
	C40.675629,408.302460 40.883739,407.261871 45.945892,404.960022 
	C70.651054,393.726196 95.375793,382.534302 120.250992,371.679657 
	C121.920502,370.951141 123.607246,370.149414 125.918243,370.764404 
z"/>
<path fill="#FEFEFE" opacity="1.000000" stroke="none" 
	d="
M250.349548,716.583374 
	C227.817444,717.475220 206.204742,714.065674 184.901901,708.341431 
	C183.074905,707.850464 181.432236,707.356384 180.652573,704.848877 
	C172.719833,679.335632 165.928818,653.537842 160.567337,627.361023 
	C154.792892,599.167908 151.094345,570.659241 147.318161,542.155273 
	C146.803543,538.270752 148.226547,537.182190 151.504745,536.702759 
	C163.680466,534.921936 175.824524,532.914124 188.016907,531.260132 
	C212.001785,528.006409 236.117371,527.344666 260.288055,527.991943 
	C266.961395,528.170715 273.586731,528.763916 280.574951,529.965576 
	C283.312683,532.319885 282.963837,535.254700 282.971313,538.051331 
	C283.012299,553.362305 283.014679,568.673523 282.984039,583.984558 
	C282.939362,606.279236 284.683136,628.462158 286.626709,650.655823 
	C287.789093,663.929199 289.615601,677.067688 291.843994,690.183350 
	C293.293640,698.715576 292.780212,699.789185 285.243042,703.629456 
	C274.259277,709.225891 263.014862,714.211731 250.349548,716.583374 
z"/>
<path fill="#48718A" opacity="1.000000" stroke="none" 
	d="
M126.181046,370.612732 
	C108.685799,378.748138 91.048485,386.511139 73.458008,394.378815 
	C63.906719,398.650818 54.467602,403.174316 44.901993,407.413147 
	C42.811665,408.339478 42.346527,409.175232 42.899822,411.467041 
	C50.726643,443.886108 56.990406,476.622498 61.784557,509.616364 
	C65.275360,533.640442 66.879349,557.838928 65.895340,582.134216 
	C65.668144,587.743591 64.622131,593.319763 63.973930,599.328979 
	C56.005486,597.122009 55.314674,596.212952 55.136089,588.269653 
	C54.492317,559.635132 51.197659,531.291443 46.296898,503.082855 
	C40.756245,471.191010 32.309315,440.190613 19.218573,410.540070 
	C17.817442,407.366516 18.401455,405.536102 21.155598,403.469879 
	C43.240204,386.901489 65.501778,370.615692 90.295303,358.201324 
	C95.176514,355.757263 100.099503,353.390717 105.275383,351.550995 
	C107.538956,350.746429 109.205986,351.110199 110.682877,352.658966 
	C116.067207,358.305145 121.380379,364.019257 126.181046,370.612732 
z"/>
<path fill="#335060" opacity="1.000000" stroke="none" 
	d="
M392.900543,392.869446 
	C388.783783,419.132568 380.753937,444.093384 371.762848,468.753113 
	C367.903015,479.339447 363.069305,489.567719 359.078644,500.110291 
	C355.883453,508.551331 349.203156,510.862854 341.309204,510.952759 
	C331.830292,511.060730 322.381561,511.029907 312.295837,514.315369 
	C316.621490,505.358215 321.641144,497.851227 326.260895,490.129028 
	C336.321625,473.311981 346.419647,456.516968 356.584961,439.763062 
	C358.221100,437.066498 357.985413,434.793732 356.058136,432.486145 
	C354.147308,430.198242 352.206207,427.932434 350.380249,425.577911 
	C349.049286,423.861664 349.111938,422.108521 349.944855,419.990814 
	C354.821533,407.591675 354.798035,394.667847 353.338654,381.714325 
	C352.616364,375.303375 351.358337,368.929901 348.901001,362.493835 
	C350.311951,360.674133 351.693695,361.508453 352.861389,362.391418 
	C365.769806,372.152252 379.020325,381.453644 391.793060,391.395447 
	C392.175598,391.693237 392.405029,392.169891 392.900543,392.869446 
z"/>
<path fill="#FCFCFC" opacity="1.000000" stroke="none" 
	d="
M371.570221,523.968811 
	C380.840668,517.218567 391.651459,514.919434 401.809906,511.034271 
	C405.799316,509.508484 409.819214,507.953156 413.572662,505.940338 
	C424.610687,500.020996 436.890991,504.072784 441.874146,515.643127 
	C445.682983,524.486755 448.205627,533.739319 450.004059,543.595337 
	C450.686035,554.792053 447.431641,564.680908 443.011993,574.274841 
	C441.624939,577.285767 439.094971,578.667908 435.718140,578.467834 
	C419.288910,577.494324 402.815338,577.444275 386.405304,576.024231 
	C379.912659,575.462402 378.688477,574.772705 377.694489,568.725708 
	C375.483734,555.276001 373.870880,541.729919 371.209442,528.351379 
	C370.945496,527.024536 371.038147,525.698730 371.570221,523.968811 
z"/>
<path fill="#F5E2CB" opacity="1.000000" stroke="none" 
	d="
M313.931030,38.453941 
	C312.917603,40.316856 311.258514,40.161236 309.617920,39.670834 
	C287.513672,33.063580 265.129883,34.069763 242.590469,36.785198 
	C227.199875,38.639370 212.181595,41.602173 197.915695,47.867340 
	C176.194763,57.406544 159.320816,72.499733 145.875076,91.924011 
	C139.204605,101.560463 133.906143,111.778816 129.211151,122.775879 
	C128.800323,117.686600 130.348114,112.513290 130.198868,107.142197 
	C130.030945,101.098808 129.623154,95.129128 127.137283,89.597061 
	C125.711243,86.423546 126.551109,84.093765 128.089478,81.314575 
	C135.417358,68.076210 146.261169,58.120537 158.009171,49.059959 
	C171.285873,38.820381 185.702042,30.358253 200.860703,23.245798 
	C216.138031,16.077656 232.491699,15.568980 248.806335,17.370184 
	C271.767303,19.905176 293.408905,27.085266 313.931030,38.453941 
z"/>
<path fill="#6D6B6D" opacity="1.000000" stroke="none" 
	d="
M118.578751,97.637146 
	C121.484421,108.154633 119.990295,118.394150 118.340233,128.538498 
	C116.310043,141.019913 114.634918,153.468491 114.880211,166.174683 
	C115.024864,173.667923 117.574356,180.493942 119.394180,187.541916 
	C120.074722,190.177551 120.474396,192.798798 119.545334,195.374115 
	C118.946396,197.034348 117.550308,198.070374 115.663452,197.956436 
	C113.678085,197.836548 114.123268,196.174973 113.918594,194.944061 
	C110.594681,174.955078 89.525871,162.178955 69.762466,168.173859 
	C68.014954,168.703949 66.286240,169.296005 64.160042,169.812149 
	C61.103840,168.129791 60.874138,165.196075 60.735100,162.696518 
	C59.525814,140.957397 65.372665,122.109673 83.901917,108.877602 
	C93.023544,102.363693 103.507195,99.080559 114.383141,96.921997 
	C115.707291,96.659195 117.038109,96.647354 118.578751,97.637146 
z"/>
<path fill="#DAD7D6" opacity="1.000000" stroke="none" 
	d="
M250.413757,716.916077 
	C250.676437,714.340332 253.058838,714.561340 254.813873,713.971069 
	C266.002747,710.207764 276.983032,705.995178 287.414124,700.388977 
	C290.141632,698.923096 291.314789,697.512878 290.656647,694.192688 
	C287.175323,676.631165 285.566589,658.837280 283.801117,641.027405 
	C280.169647,604.393616 281.190521,567.698486 280.990356,530.546448 
	C284.041718,529.601379 286.802429,531.289795 289.813385,531.295898 
	C292.152588,531.300598 292.037994,533.186646 292.373108,534.836914 
	C294.136902,543.522705 294.701721,552.379089 294.814056,561.148926 
	C295.138336,586.469543 298.421783,611.586853 299.407104,636.850464 
	C299.886993,649.154297 300.356537,661.458984 300.733307,673.766296 
	C301.074921,684.925659 302.270752,695.990967 304.534088,706.909790 
	C305.072540,709.507446 304.235657,709.806213 302.106445,710.402405 
	C285.338501,715.097595 268.232880,717.011597 250.413757,716.916077 
z"/>
<path fill="#D23833" opacity="1.000000" stroke="none" 
	d="
M261.816467,408.778198 
	C263.120605,414.600647 261.368347,418.348358 256.521454,421.995605 
	C245.930359,429.965179 236.278915,439.218018 223.444382,443.736816 
	C218.438095,445.499420 213.450592,447.317291 208.178436,448.187988 
	C203.529816,448.955750 200.372726,447.729248 199.652832,442.507111 
	C199.430786,440.896301 198.584732,439.371521 197.960495,437.438538 
	C196.929031,426.474915 195.236328,415.959473 194.551117,405.329010 
	C194.293427,401.331238 193.798050,397.352203 194.452728,393.377869 
	C195.443085,387.365784 199.112015,383.737030 205.133804,383.289551 
	C215.320312,382.532684 225.426468,382.907379 235.248444,386.265198 
	C242.868530,388.870239 244.966156,392.199951 242.642303,399.813263 
	C241.738678,402.773682 242.908890,403.463104 245.111038,404.606445 
	C250.279160,407.289703 255.930344,407.593170 261.816467,408.778198 
z"/>
<path fill="#80AEC2" opacity="1.000000" stroke="none" 
	d="
M223.625214,477.366180 
	C219.061462,475.895905 217.683929,473.930359 219.622559,469.172699 
	C223.490509,459.680298 230.279388,452.891510 238.118912,446.902893 
	C242.588867,443.488251 247.371292,440.485596 251.931564,437.184875 
	C253.824997,435.814484 254.860641,435.697845 256.505768,437.874115 
	C266.596252,451.222382 273.557648,466.241394 280.230713,481.425201 
	C283.234741,488.260529 286.100281,495.157074 288.985901,502.043793 
	C289.468689,503.196014 290.831299,504.463043 289.768707,505.638824 
	C288.727509,506.790955 287.337067,505.694122 286.104095,505.292969 
	C264.405731,498.233398 243.875412,488.558014 223.625214,477.366180 
z"/>
<path fill="#D8D5D5" opacity="1.000000" stroke="none" 
	d="
M371.348755,523.638123 
	C374.688141,531.862427 375.569000,540.661072 376.775299,549.304260 
	C377.804077,556.675659 379.482452,563.961731 379.993713,571.402832 
	C380.149628,573.671814 381.565491,573.961853 383.403839,574.041870 
	C398.151215,574.684082 412.896393,575.375183 427.642883,576.037964 
	C428.971405,576.097656 430.305939,576.021301 431.634583,576.079163 
	C440.972046,576.485657 440.687927,576.386963 444.068970,567.212341 
	C446.790405,559.827576 447.400909,552.035034 449.707581,544.273743 
	C454.765686,558.815796 457.911896,573.613159 448.854401,588.034729 
	C445.212616,593.833252 440.202820,598.281799 433.441742,599.791138 
	C422.086304,602.326172 410.610199,603.101929 397.694580,600.128296 
	C408.119568,594.686707 418.772583,595.360352 428.399628,591.888977 
	C423.890839,589.452393 422.945679,589.248291 417.327454,588.991516 
	C405.986084,588.473022 394.726074,589.737732 383.434875,590.400635 
	C375.760101,590.851257 375.927155,590.647095 375.142975,583.119812 
	C373.268524,565.127502 372.594818,546.947937 367.383270,529.442261 
	C366.349396,525.969604 369.515076,525.454590 371.348755,523.638123 
z"/>
<path fill="#F5E2CB" opacity="1.000000" stroke="none" 
	d="
M108.802765,254.478775 
	C114.514572,255.351334 115.492874,260.175476 115.902359,264.765289 
	C117.777023,285.777924 122.582397,306.059113 131.726303,325.054382 
	C137.046677,336.106781 143.360916,346.733612 152.628387,355.206421 
	C154.560501,356.972839 156.804489,358.561188 157.928696,361.461334 
	C138.383682,358.984131 124.591949,348.659027 116.415955,330.483521 
	C109.334229,314.740570 102.596222,298.964783 99.500534,281.820862 
	C98.529503,276.443268 99.839607,272.632111 103.643257,268.913879 
	C107.459534,265.183350 112.122322,261.386719 108.802765,254.478775 
z"/>
<path fill="#335060" opacity="1.000000" stroke="none" 
	d="
M325.855835,547.749084 
	C327.081604,553.852783 328.233002,559.700806 328.807281,565.604980 
	C330.044464,578.324158 330.039520,591.147583 331.942688,603.818115 
	C332.313538,606.287170 331.654449,607.749268 328.628235,608.096802 
	C322.045746,608.852661 315.703308,611.209290 308.958160,611.103271 
	C306.661652,611.067139 305.178253,610.702393 305.040894,607.910767 
	C304.167572,590.162842 303.183167,572.420532 302.327087,554.234131 
	C303.170929,552.816162 304.223358,552.255188 305.380463,552.096558 
	C311.013275,551.324402 316.387756,549.680542 321.641388,547.553711 
	C322.875824,547.054016 324.221924,546.887634 325.855835,547.749084 
z"/>
<path fill="#80ADC1" opacity="1.000000" stroke="none" 
	d="
M319.480347,428.322021 
	C330.209717,424.587128 341.281342,428.258789 347.541107,437.115082 
	C348.763397,438.844391 349.163055,440.054810 348.032745,441.978333 
	C336.365540,461.833679 325.206909,482.002411 311.625580,500.667297 
	C310.915527,501.643127 310.465363,503.244476 308.231934,502.776367 
	C310.208862,496.576569 311.177277,490.171112 312.364471,483.804626 
	C315.419373,467.422241 316.336548,450.852997 317.256927,434.271088 
	C317.370178,432.231049 316.610382,429.810242 319.480347,428.322021 
z"/>
<path fill="#D13833" opacity="1.000000" stroke="none" 
	d="
M340.836243,376.691681 
	C343.690155,388.278320 346.153015,399.583496 343.961914,411.318604 
	C342.471313,419.301605 341.603760,419.998566 333.688873,419.406311 
	C322.597656,418.576416 311.595215,417.216919 300.424988,414.545044 
	C295.947937,408.348511 297.614685,403.589600 304.586304,401.563141 
	C312.703033,399.203796 312.876953,398.980835 313.070618,390.687622 
	C313.296448,381.016327 315.385712,378.305145 324.927460,376.673157 
	C330.041016,375.798584 335.265076,373.622314 340.836243,376.691681 
z"/>
<path fill="#EA3C39" opacity="1.000000" stroke="none" 
	d="
M262.157043,408.663269 
	C255.140488,410.672089 248.807266,409.263550 242.952087,405.032745 
	C240.582855,403.320801 239.738266,401.806030 240.981750,398.827820 
	C243.335403,393.190704 241.904221,390.698486 236.352112,388.601501 
	C226.009460,384.695129 215.265533,384.598358 204.478867,385.077271 
	C199.460709,385.300079 196.257935,389.179901 196.042923,395.013428 
	C195.767944,402.474060 197.162766,409.842834 197.537079,417.267395 
	C197.859528,423.662994 200.108810,429.970612 198.182251,436.763916 
	C189.737381,419.586334 187.149246,401.324646 190.097778,382.246918 
	C191.731506,371.676331 197.263672,368.276215 207.610336,370.982910 
	C222.147461,374.785797 235.961029,380.133240 248.723953,388.154816 
	C251.635605,389.984741 254.753357,391.656219 258.327850,392.021851 
	C259.697449,392.161987 260.954041,392.401123 261.095856,394.218292 
	C261.239227,396.055756 260.261932,397.068207 258.729889,397.539978 
	C255.724792,398.465302 252.699646,399.361542 249.630554,400.030029 
	C247.660156,400.459229 245.789413,400.959137 243.692947,402.514008 
	C250.295761,403.830933 257.044159,403.638947 262.157043,408.663269 
z"/>
<path fill="#D9D6D5" opacity="1.000000" stroke="none" 
	d="
M328.931183,652.125366 
	C330.427704,659.564453 331.196075,666.628418 331.111786,673.809326 
	C331.084351,676.146240 330.496979,677.590027 328.218109,678.257996 
	C322.972046,679.795654 317.739441,681.349243 312.261566,681.907593 
	C310.110016,682.126892 309.008972,681.912354 308.921387,679.216553 
	C308.386963,662.769897 306.475952,646.382263 306.925171,629.885010 
	C307.004089,626.987122 307.487152,625.761169 310.745667,625.057068 
	C323.406799,622.320984 323.265808,622.138733 325.332916,634.677612 
	C326.274811,640.390808 327.691406,646.025757 328.931183,652.125366 
z"/>
<path fill="#F3E0C9" opacity="1.000000" stroke="none" 
	d="
M102.134689,200.578003 
	C97.848534,201.797241 95.037727,196.933334 90.278381,198.028015 
	C87.904846,198.808517 86.307968,197.636871 84.639450,197.010056 
	C74.695778,193.274567 70.232025,194.810577 64.725609,203.942535 
	C64.211487,204.795166 63.493710,205.523743 63.080666,206.827682 
	C61.982914,213.977142 61.368393,220.880646 59.850159,227.579346 
	C58.514530,233.472351 59.622101,238.985016 60.669193,244.632278 
	C60.906963,245.914627 60.858028,247.250168 60.916252,249.022186 
	C50.615143,235.315033 45.291664,219.980835 50.571129,202.480865 
	C54.816593,188.408325 70.312637,178.798019 84.722008,181.164764 
	C92.269066,182.404373 96.691742,187.733185 99.946327,194.150848 
	C100.908356,196.047852 101.420990,198.172745 102.134689,200.578003 
z"/>
<path fill="#487089" opacity="1.000000" stroke="none" 
	d="
M393.264923,392.751587 
	C386.410187,390.738831 381.672028,385.398499 376.008484,381.436737 
	C367.071930,375.185486 358.384735,368.577759 349.236237,362.115265 
	C348.370453,361.699921 347.668274,361.394562 347.380219,360.864258 
	C344.535858,355.627686 340.625916,351.926971 334.389038,351.227051 
	C333.387543,351.114685 331.678589,351.424927 331.624878,349.829651 
	C331.599518,349.075989 332.564117,348.116760 333.304901,347.538483 
	C337.089996,344.583618 341.192841,342.002045 344.283600,338.241760 
	C345.902710,336.271973 347.178802,337.425262 348.443970,338.575104 
	C352.252289,342.036133 356.150177,345.410217 359.793457,349.038818 
	C368.151367,357.363129 376.626648,365.539886 386.027710,372.707153 
	C392.569458,377.694519 395.603607,384.057373 393.264923,392.751587 
z"/>
<path fill="#FBFBFB" opacity="1.000000" stroke="none" 
	d="
M347.431885,583.226196 
	C344.627686,565.704712 342.241760,548.423767 339.522827,531.195435 
	C339.057281,528.245667 339.816528,527.856750 342.319794,527.823792 
	C356.742798,527.634094 354.016693,525.508118 358.979462,538.940308 
	C363.392517,550.884766 364.855286,563.416199 365.171143,576.535889 
	C360.008514,581.068298 354.358551,583.571655 347.431885,583.226196 
z"/>
<path fill="#FBFBFB" opacity="1.000000" stroke="none" 
	d="
M309.330627,437.752075 
	C308.941650,456.183563 308.141235,474.262207 304.912476,492.551514 
	C301.958801,494.339111 300.803406,492.090454 299.889587,490.303101 
	C292.095642,475.058533 284.363617,459.778381 278.347717,443.711090 
	C276.264801,438.148102 278.307098,433.604706 282.156738,429.676971 
	C283.955719,427.841583 286.441132,426.348175 288.901093,427.239655 
	C296.021118,429.819763 303.409088,432.003113 309.330627,437.752075 
z"/>
<path fill="#D7D4D3" opacity="1.000000" stroke="none" 
	d="
M101.171364,79.681831 
	C95.196815,82.530563 89.201363,84.220947 82.504349,86.038895 
	C86.845901,75.861023 93.670067,68.367287 101.419815,61.747330 
	C118.409706,47.234306 137.971100,37.337154 159.144699,30.480667 
	C161.345535,29.767992 163.639816,29.483286 164.791763,31.943863 
	C166.169144,34.885948 163.410751,36.034359 161.624161,36.483479 
	C157.548874,37.507938 155.294342,41.255932 151.264008,42.785610 
	C144.150116,48.054634 136.171326,51.179028 129.119385,55.955570 
	C120.520935,61.779625 112.403038,68.052887 105.674736,76.004700 
	C104.470688,77.427696 103.036690,78.526100 101.171364,79.681831 
z"/>
<path fill="#D7D4D3" opacity="1.000000" stroke="none" 
	d="
M309.673279,437.643890 
	C303.927185,435.406952 298.273956,432.818512 292.731293,430.011810 
	C289.317841,428.283325 285.859375,427.690521 283.220947,430.699677 
	C280.558716,433.735962 277.652130,437.124542 279.477356,441.807739 
	C281.520660,447.050537 283.444580,452.356873 285.817017,457.450897 
	C290.843781,468.244049 296.116028,478.923096 301.322357,489.632050 
	C301.955139,490.933685 302.378662,492.501465 304.470642,492.912231 
	C304.093933,496.312378 303.511383,499.713226 301.730988,502.949860 
	C291.956757,484.671875 285.405151,465.288208 275.804901,447.318207 
	C272.762756,441.623779 269.254150,436.250671 265.488922,431.020599 
	C263.398926,428.117493 266.175293,421.555420 269.352142,422.328979 
	C274.145691,423.496216 277.906738,421.570435 281.624176,419.714172 
	C286.558472,417.250336 290.563171,418.576141 294.553864,421.413330 
	C298.745148,424.393127 302.922150,427.433990 308.245880,427.957520 
	C309.874969,428.117706 310.117218,428.925629 310.064056,430.223267 
	C309.968750,432.548462 309.895386,434.874542 309.673279,437.643890 
z"/>
<path fill="#D6D3D2" opacity="1.000000" stroke="none" 
	d="
M118.921120,97.501434 
	C103.966301,100.290108 89.740433,104.524574 78.643181,115.461967 
	C63.512814,130.374390 59.854313,148.715408 63.673233,169.399124 
	C61.823116,171.481491 60.227444,173.256638 59.799454,168.575699 
	C58.750538,157.103745 58.490410,145.716370 59.700550,134.197647 
	C61.588684,116.225464 73.097427,106.046829 87.548058,98.041489 
	C94.576645,94.147804 102.232735,91.991920 110.179245,90.710403 
	C117.572029,89.518188 117.546455,89.359634 118.921120,97.501434 
z"/>
<path fill="#EA3C39" opacity="1.000000" stroke="none" 
	d="
M341.159180,376.578217 
	C334.694275,376.591278 328.369293,377.822388 322.058044,379.054443 
	C317.462250,379.951569 314.607330,382.429474 314.972382,387.575470 
	C315.100891,389.386993 315.009155,391.214844 315.000946,393.035217 
	C314.969696,399.960999 313.111145,402.073669 306.211792,403.041962 
	C299.836029,403.936768 298.981995,405.386322 300.078125,413.928802 
	C296.949860,414.399200 295.960907,412.937714 295.951996,409.733490 
	C295.919708,398.151794 295.792450,398.153748 307.355072,396.181183 
	C307.994171,396.072144 308.622711,395.901245 310.687561,395.438019 
	C305.910553,393.326996 302.133026,392.828857 298.327393,393.349701 
	C292.689972,394.121246 294.685028,388.900696 292.972656,386.671204 
	C291.038513,384.152985 294.226837,384.014313 295.534637,383.170105 
	C301.923950,379.045715 308.315948,374.924194 314.764648,370.893829 
	C317.421692,369.233185 320.157471,367.739960 323.254517,366.892487 
	C334.220551,363.891968 337.314240,365.452301 341.159180,376.578217 
z"/>
<path fill="#49718A" opacity="1.000000" stroke="none" 
	d="
M145.200439,455.584045 
	C150.767441,459.295532 156.024460,463.668488 156.035126,471.505737 
	C156.057648,488.074982 156.076538,504.644257 156.150848,521.696472 
	C154.050568,523.438416 151.644089,522.771729 149.365646,523.080994 
	C147.113724,523.386719 146.007629,522.265747 145.457336,520.208008 
	C144.552475,516.824402 144.033218,513.429138 143.856445,509.900452 
	C142.955109,491.907562 145.661575,474.014923 145.200439,455.584045 
z"/>
<path fill="#6D6B6D" opacity="1.000000" stroke="none" 
	d="
M101.312714,79.928024 
	C106.226852,71.089699 113.992790,64.598701 122.073189,58.604424 
	C130.736313,52.177845 140.114990,46.824310 150.647247,43.009995 
	C150.272888,45.996189 147.292480,46.576038 145.322739,48.188030 
	C139.431122,53.009594 135.308182,59.158871 131.773361,65.732918 
	C129.953888,69.116806 127.654572,72.132408 125.292358,75.080811 
	C122.610832,78.427757 119.157661,80.598373 114.536018,79.951485 
	C110.272484,79.354721 106.003685,79.255524 101.312714,79.928024 
z"/>
<path fill="#48718A" opacity="1.000000" stroke="none" 
	d="
M326.177795,547.540527 
	C318.581329,550.165161 311.429016,554.137024 302.805328,553.836182 
	C302.311432,547.845642 302.289856,541.896057 302.059967,535.954407 
	C301.946960,533.033875 303.404175,531.663147 305.990356,531.199890 
	C309.559998,530.560486 313.179962,530.250305 316.770752,529.812378 
	C322.126221,529.159241 324.332733,531.388306 324.868835,536.282471 
	C325.264282,539.892883 325.729553,543.495605 326.177795,547.540527 
z"/>
<path fill="#F3E1CA" opacity="1.000000" stroke="none" 
	d="
M325.916992,97.594009 
	C322.658752,100.225517 321.336792,99.179695 320.981567,95.501808 
	C319.738342,82.629745 325.913300,73.551178 338.511292,69.895813 
	C340.090698,69.437538 341.596436,68.725166 343.494415,68.072388 
	C348.213989,71.861328 351.219238,76.772141 355.091705,81.956543 
	C348.289429,81.306664 342.047943,80.287422 336.179810,83.085175 
	C330.239410,85.917389 326.472565,90.396111 325.916992,97.594009 
z"/>
<path fill="#E9CEB1" opacity="1.000000" stroke="none" 
	d="
M255.733093,372.707062 
	C268.016876,374.279602 279.144226,370.545807 290.407379,367.891266 
	C293.007965,367.278381 295.542297,366.949524 299.588287,366.916870 
	C293.154785,371.925842 287.759552,376.150665 282.325134,380.324493 
	C281.699707,380.804840 280.871185,381.244354 280.111023,381.292114 
	C268.847961,381.999695 258.323669,379.935150 249.232208,372.771057 
	C248.916733,372.522461 248.896790,371.898804 248.528152,370.849640 
	C251.047592,371.504120 253.178619,372.057709 255.733093,372.707062 
z"/>
<path fill="#487088" opacity="1.000000" stroke="none" 
	d="
M140.811676,549.487671 
	C131.838181,548.515808 122.787376,547.489075 113.914177,545.619324 
	C109.391792,544.666504 106.057487,540.814819 102.129257,538.363892 
	C101.541832,537.997437 101.203049,537.184814 101.713226,536.658020 
	C102.610016,535.731934 103.887886,536.105957 105.390472,536.111694 
	C108.967133,539.414917 112.921028,537.743530 116.497398,537.457581 
	C122.973289,536.939697 129.394165,536.531311 135.868378,537.448425 
	C139.122543,537.909424 140.496628,539.386230 140.049271,542.738403 
	C139.766052,544.860596 139.860748,547.052734 140.811676,549.487671 
z"/>
<path fill="#F9F9F9" opacity="1.000000" stroke="none" 
	d="
M149.361801,376.162354 
	C146.304398,374.640503 143.820374,372.978821 143.701706,369.525879 
	C143.646225,367.911407 144.147415,366.174255 146.235611,367.176758 
	C155.624573,371.684448 165.832870,371.301514 175.796844,372.232758 
	C180.587677,372.680573 182.037170,374.666931 180.365311,379.094757 
	C179.967178,380.149139 179.641998,381.231049 179.101685,382.639160 
	C175.933884,385.006531 172.794083,383.728760 169.817535,383.160156 
	C162.814346,381.822235 156.141266,379.395538 149.361801,376.162354 
z"/>
<path fill="#D5D2D1" opacity="1.000000" stroke="none" 
	d="
M347.072144,583.410400 
	C353.169952,581.927979 358.406006,578.525391 364.691376,577.039917 
	C365.228516,578.957458 365.573364,580.931824 365.507416,582.892395 
	C365.403198,585.991943 367.250397,590.388916 364.924438,591.916870 
	C360.941071,594.533630 356.107269,596.313721 350.959045,596.303162 
	C349.008820,596.299194 348.284546,595.488037 348.104889,593.733948 
	C347.767212,590.437744 347.383057,587.146301 347.072144,583.410400 
z"/>
<path fill="#CD3732" opacity="1.000000" stroke="none" 
	d="
M277.779053,390.183960 
	C283.768250,390.740997 287.223236,395.094269 286.859039,401.043823 
	C286.501953,406.877869 281.754974,411.634888 276.375305,411.692261 
	C271.708313,411.742004 269.804871,409.285797 269.826233,404.485840 
	C273.933685,400.427765 276.080383,395.639862 277.779053,390.183960 
z"/>
<path fill="#D4D1D0" opacity="1.000000" stroke="none" 
	d="
M149.101471,376.423950 
	C152.478104,374.676147 155.031616,377.488983 158.007538,378.279022 
	C164.668518,380.047424 171.289810,381.911530 178.525131,382.922455 
	C180.005539,388.166779 176.547318,387.439514 173.706284,386.679199 
	C165.148834,384.389069 156.735123,381.659882 149.101471,376.423950 
z"/>
<path fill="#E73C39" opacity="1.000000" stroke="none" 
	d="
M277.608551,389.842773 
	C277.981873,398.269897 275.974915,402.075195 270.180847,404.064697 
	C268.862213,402.999847 268.996948,401.639435 268.825470,400.354431 
	C267.695129,391.883209 268.681458,390.633972 277.608551,389.842773 
z"/>
<path fill="#72665B" opacity="1.000000" stroke="none" 
	d="
M211.250641,357.558594 
	C211.088501,357.077332 211.129898,356.840942 211.185104,356.244873 
	C212.672211,356.424988 214.379715,356.502502 215.518509,357.983154 
	C213.987762,359.470428 212.749802,358.055664 211.250641,357.558594 
z"/>
<path fill="#A5322E" opacity="1.000000" stroke="none" 
	d="
M8.993696,431.821533 
	C8.293919,431.885925 8.018031,431.344757 7.986677,430.304321 
	C8.309759,430.481567 8.651626,430.986786 8.993696,431.821533 
z"/>
<path fill="#A5322E" opacity="1.000000" stroke="none" 
	d="
M8.006519,429.728088 
	C7.704349,429.751129 7.393665,429.468231 7.150395,428.846497 
	C7.477875,428.812500 7.737941,429.117279 8.006519,429.728088 
z"/>
<path fill="#292525" opacity="1.000000" stroke="none" 
	d="
M279.096802,241.654388 
	C279.841919,250.747299 283.151764,253.795761 291.613281,253.975891 
	C301.403839,254.184296 310.070038,250.264008 318.809540,246.684753 
	C323.712891,244.676575 328.293884,241.795319 333.293671,240.127258 
	C342.487640,237.059891 343.570099,225.634384 337.884888,219.241959 
	C332.596283,213.295441 327.439087,207.224518 322.405975,201.059860 
	C311.546906,187.759430 301.650879,173.913223 297.950562,156.637787 
	C297.351227,153.839645 297.018738,151.057861 297.046478,148.227585 
	C297.061493,146.694077 296.322845,144.630981 298.829041,144.262817 
	C301.180328,143.917419 301.987457,145.551178 302.526398,147.453644 
	C304.250244,153.538910 306.795044,159.231369 310.151520,164.625977 
	C321.326874,182.587448 334.462891,198.978699 349.799652,213.508728 
	C354.467560,217.931091 356.486084,222.203339 354.000061,228.375504 
	C352.706543,231.587021 351.902344,235.014709 351.106873,238.398758 
	C350.764221,239.856369 350.030731,240.719452 348.854706,241.459747 
	C334.791260,250.312836 320.519287,258.778900 303.817596,261.637787 
	C296.784149,262.841705 289.670563,263.822845 282.456604,263.086609 
	C280.175720,262.853851 278.347504,262.179840 276.876862,260.327087 
	C271.437958,253.475220 271.142975,243.423218 276.610931,236.130310 
	C279.156219,237.198624 279.645081,239.050980 279.096802,241.654388 
z"/>
<path fill="#2A2525" opacity="1.000000" stroke="none" 
	d="
M303.576843,316.652100 
	C289.996246,319.289337 276.811188,320.345093 263.550018,317.145050 
	C257.401001,315.661255 252.076172,312.884918 247.803452,308.204285 
	C241.195160,300.965118 236.308746,292.337708 229.376312,285.340881 
	C228.256775,284.210938 226.447495,282.222198 229.340820,280.998199 
	C231.308151,280.165894 234.009567,278.520447 235.467331,281.469055 
	C245.177185,301.109283 263.626587,303.535950 282.265503,304.925781 
	C292.704590,305.704163 303.250793,305.024200 313.748505,305.061371 
	C315.332916,305.066956 316.998596,304.579895 318.674683,305.501373 
	C316.140015,312.459351 310.700836,315.342346 303.576843,316.652100 
z"/>
<path fill="#282323" opacity="1.000000" stroke="none" 
	d="
M296.843628,272.723267 
	C308.865601,272.627899 308.533234,272.644775 309.114166,284.076111 
	C309.380981,289.326538 307.720917,290.274292 302.889099,290.181610 
	C285.304047,289.844421 268.200134,287.733429 252.424286,279.206451 
	C245.860962,275.658905 241.028305,270.569397 238.763657,264.165741 
	C257.488617,271.882751 276.899567,272.576813 296.843628,272.723267 
z"/>
<path fill="#2A2625" opacity="1.000000" stroke="none" 
	d="
M238.478409,141.355133 
	C238.824539,139.028976 238.943710,137.043655 239.118011,134.139755 
	C242.106293,138.613327 243.804428,142.764908 245.507187,146.939362 
	C248.285248,153.750000 251.756348,160.074936 257.409790,165.084152 
	C267.876740,174.358322 263.720856,184.615250 252.435730,189.024490 
	C242.934708,192.736679 233.114090,191.567261 223.692032,187.773300 
	C221.150940,186.750107 219.174942,184.974762 218.258774,182.268814 
	C216.639084,177.485123 219.422211,174.465424 224.388214,175.000549 
	C231.610031,175.778748 238.733948,178.302124 246.140182,176.488144 
	C252.489120,174.933151 252.706131,174.476044 249.529449,168.820404 
	C248.636185,167.230057 247.684219,165.672653 246.468689,163.903809 
	C239.997696,157.644516 237.413986,150.286270 238.478409,141.355133 
z"/>
<path fill="#2A2525" opacity="1.000000" stroke="none" 
	d="
M219.702820,87.992462 
	C221.851608,90.536797 224.987167,91.409920 226.255768,94.442993 
	C227.286102,96.906395 227.594711,99.189804 226.244308,101.552254 
	C224.775818,104.121300 222.687607,102.423103 220.939209,102.166885 
	C205.352066,99.882660 193.905563,106.481689 185.287292,118.870293 
	C183.235001,121.820404 181.089142,124.790077 179.862152,128.307999 
	C179.449051,129.492416 179.111664,131.567703 177.180115,131.409073 
	C175.391357,131.262161 174.279358,129.906387 173.833008,128.149475 
	C173.629105,127.346954 173.549728,126.512787 173.277924,125.359665 
	C171.201660,122.949554 172.184769,120.605804 172.701279,118.421829 
	C176.248810,103.421822 194.269150,87.407494 209.525345,85.646706 
	C213.044067,85.240593 216.511856,85.318581 219.702820,87.992462 
z"/>
<path fill="#292424" opacity="1.000000" stroke="none" 
	d="
M336.747650,265.914459 
	C345.176819,261.758179 353.237488,257.716980 361.808838,253.419769 
	C356.549622,270.959320 336.322937,287.471802 319.411194,288.803436 
	C316.522583,289.030884 315.314301,288.486938 315.114929,285.223969 
	C314.323029,272.263214 314.177216,272.174011 327.035828,269.301361 
	C330.322693,268.567047 333.347015,267.352661 336.747650,265.914459 
z"/>
<path fill="#2A2525" opacity="1.000000" stroke="none" 
	d="
M355.093384,140.174927 
	C355.998444,137.903656 354.878662,135.637955 356.397430,133.401337 
	C359.929047,138.441650 361.687775,144.145828 364.399353,149.356598 
	C367.525269,155.363602 370.610901,161.404037 374.062714,167.223114 
	C375.508179,169.659851 375.621246,171.517883 373.659668,173.389786 
	C365.948486,180.748489 356.901703,184.405548 346.146210,182.889526 
	C343.641235,182.536453 341.497803,181.235214 339.957397,179.100677 
	C336.042419,173.675644 337.003510,170.932236 343.481873,169.909836 
	C347.241058,169.316559 351.086945,169.279541 354.891846,168.968033 
	C363.588318,168.256042 364.074799,167.478928 360.721741,159.071075 
	C355.223419,153.726425 354.364075,147.258133 355.093384,140.174927 
z"/>
<path fill="#2B2626" opacity="1.000000" stroke="none" 
	d="
M63.330944,207.059113 
	C62.287659,202.213943 65.031059,198.715042 68.558258,196.195892 
	C75.704262,191.092102 82.610191,193.556641 89.531448,197.946106 
	C94.817970,203.131180 98.385605,208.895523 99.418068,216.115631 
	C99.923225,219.648224 99.901192,223.018356 98.617805,226.588165 
	C95.725960,225.224258 95.092003,222.324738 93.800293,219.937073 
	C92.778358,218.048080 91.867958,216.098404 90.833496,214.216660 
	C89.125969,211.110550 87.176178,207.747147 83.086502,208.437866 
	C79.123871,209.107147 77.985367,212.860641 77.213013,216.275589 
	C76.148331,220.983047 75.806793,225.790985 75.997993,230.632065 
	C76.088417,232.921600 76.013504,235.217682 76.013504,238.141342 
	C72.572502,235.809906 71.861946,232.479538 71.235382,229.494553 
	C69.722466,222.286957 69.639359,215.018478 71.735756,207.818665 
	C72.096107,206.581100 73.600571,205.137894 71.873314,203.791977 
	C70.199081,202.487350 68.651642,203.683533 67.244148,204.343384 
	C65.933220,204.957962 64.853264,206.065201 63.330944,207.059113 
z"/>
<path fill="#F6E3CC" opacity="1.000000" stroke="none" 
	d="
M238.295532,141.014435 
	C239.490417,148.899109 242.860382,155.922806 246.105865,163.359787 
	C240.841476,170.444260 223.147125,169.347229 218.209198,161.579041 
	C216.058121,158.195068 216.187408,154.381973 218.538696,151.317688 
	C223.354828,145.041092 229.656693,141.102905 238.295532,141.014435 
z"/>
<path fill="#F3E0CA" opacity="1.000000" stroke="none" 
	d="
M219.886505,87.975777 
	C198.162399,84.973831 176.823105,101.482277 173.283173,124.661469 
	C170.629562,124.572357 170.231201,122.625252 170.026520,120.570862 
	C168.449020,104.738312 176.490463,94.035126 187.768875,86.370178 
	C193.768936,82.292465 200.325943,79.105171 208.123993,79.934364 
	C213.482117,80.504105 217.564667,82.585655 219.886505,87.975777 
z"/>
<path fill="#F5E2CB" opacity="1.000000" stroke="none" 
	d="
M355.049469,139.993256 
	C356.711395,146.084457 357.965179,152.230179 360.382446,158.463623 
	C356.453369,160.452774 352.568085,162.411102 348.458344,163.581146 
	C341.343903,165.606598 337.838715,162.008286 339.548767,154.877060 
	C341.490936,146.777832 347.388336,142.714355 355.049469,139.993256 
z"/>
<path fill="#F7E4CC" opacity="1.000000" stroke="none" 
	d="
M220.298737,281.652069 
	C219.848648,284.493073 218.797501,286.814178 218.949982,289.385712 
	C219.019028,290.550293 219.513428,292.398285 217.448166,292.420593 
	C216.189240,292.434204 214.705658,292.116455 214.135300,290.633759 
	C211.906693,284.840363 210.487595,278.891510 211.135864,272.628601 
	C211.363708,270.427521 213.209106,269.455872 214.994400,269.285889 
	C219.411789,268.865356 223.982880,268.068878 228.249939,271.413055 
	C224.709366,274.032623 221.908844,277.162720 220.298737,281.652069 
z"/>
<path fill="#F6E3CC" opacity="1.000000" stroke="none" 
	d="
M279.258484,241.857559 
	C278.317596,240.271088 277.677155,238.529343 276.999054,236.439697 
	C278.145172,232.159729 279.087402,228.131073 280.606079,224.332886 
	C281.475861,222.157516 283.476624,220.686005 286.190094,221.060104 
	C290.182220,221.610474 291.935120,224.512268 293.405792,227.808960 
	C294.535004,230.340271 292.913361,231.281281 291.224854,232.538162 
	C287.259521,235.489853 283.438416,238.635269 279.258484,241.857559 
z"/>
<path fill="#322F30" opacity="1.000000" stroke="none" 
	d="
M399.282288,534.294189 
	C393.904388,537.220703 388.887268,540.144958 382.066193,539.409302 
	C391.510498,527.124695 404.480255,524.286621 418.324707,523.350769 
	C411.781921,526.439575 405.837585,530.531799 399.282288,534.294189 
z"/>
<path fill="#3B3738" opacity="1.000000" stroke="none" 
	d="
M407.756531,561.405151 
	C415.841919,562.397522 423.494202,563.277405 430.652863,566.474426 
	C416.994507,567.696350 403.431122,566.534180 388.497040,565.885925 
	C395.019714,561.692261 401.066986,561.167175 407.756531,561.405151 
z"/>
<path fill="#2F2B2C" opacity="1.000000" stroke="none" 
	d="
M409.640747,548.789062 
	C402.944031,548.852417 396.713989,548.852417 390.358978,548.852417 
	C395.545898,541.966370 417.547211,540.715271 426.592926,546.841614 
	C420.923370,547.489624 415.515411,548.107666 409.640747,548.789062 
z"/>
<path fill="#2E2A2A" opacity="1.000000" stroke="none" 
	d="
M291.957336,444.796417 
	C288.398590,444.252136 286.499603,442.293030 286.450928,439.133942 
	C286.424469,437.413574 287.064209,435.597992 289.173828,434.816681 
	C292.164093,433.709290 294.899750,433.771820 296.354706,436.904022 
	C298.243835,440.971008 296.273590,443.472260 291.957336,444.796417 
z"/>
<path fill="#2B2727" opacity="1.000000" stroke="none" 
	d="
M302.262573,464.813782 
	C301.203888,468.123779 299.467621,470.396698 296.094452,469.490021 
	C293.886871,468.896606 292.034760,467.386902 291.903625,464.568848 
	C291.772980,461.761200 293.206909,460.027435 295.623688,459.411316 
	C299.681610,458.376862 301.929565,460.269745 302.262573,464.813782 
z"/>
</svg>