
<svg width="256" height="256" viewBox="0 0 256 256" fill="none" xmlns="http://www.w3.org/2000/svg">
<path d="M2798 5109 c-20 -5 -128 -52 -240 -105 -112 -53 -248 -118 -303 -144
-55 -26 -158 -76 -230 -110 -71 -34 -162 -77 -202 -96 -161 -75 -259 -127
-282 -147 -38 -35 -57 -89 -111 -327 -28 -124 -57 -252 -65 -285 -102 -424
-168 -729 -168 -775 0 -85 -60 -4 620 -848 188 -233 254 -307 286 -325 l42
-22 690 0 690 0 45 22 c38 19 84 70 280 314 129 160 317 393 417 518 101 124
190 240 198 258 21 43 19 119 -6 222 -11 47 -26 113 -34 146 -8 33 -62 267
-120 520 -117 513 -118 517 -152 563 -27 36 -25 35 -668 342 -626 299 -616
295 -687 279z m95 -441 c19 -25 19 -33 9 -134 -9 -94 -9 -112 6 -146 12 -26
23 -38 37 -38 42 0 192 -43 262 -75 83 -38 146 -79 224 -146 40 -34 59 -45 70
-38 8 5 23 9 33 9 11 0 57 36 102 81 77 75 86 80 120 77 27 -2 43 -11 57 -30
20 -27 20 -29 4 -62 -10 -22 -34 -45 -64 -62 -97 -56 -133 -85 -148 -120 -14
-33 -13 -37 20 -97 19 -34 48 -105 66 -157 29 -85 33 -110 37 -240 5 -143 5
-145 32 -167 19 -16 51 -25 116 -33 124 -16 132 -18 154 -40 29 -29 26 -74 -6
-99 -32 -25 -62 -26 -112 -5 -75 32 -156 51 -181 43 -12 -5 -26 -7 -30 -4 -5
2 -20 -27 -35 -65 -56 -142 -199 -320 -317 -394 -48 -30 -48 -30 -40 -112 1
-6 23 -46 51 -88 57 -88 66 -115 49 -148 -16 -31 -28 -38 -66 -38 -39 0 -65
30 -89 103 -25 78 -55 147 -65 147 -4 0 -15 7 -23 16 -15 14 -21 14 -64 0
-138 -44 -359 -47 -500 -7 l-73 21 -29 -21 c-26 -20 -59 -91 -85 -186 -3 -12
-15 -33 -26 -47 -27 -35 -90 -37 -113 -4 -25 35 -19 70 24 136 58 90 73 123
75 163 2 32 -2 39 -39 62 -121 77 -245 225 -311 370 -39 86 -39 86 -82 93 -34
5 -62 0 -133 -25 -101 -35 -126 -38 -158 -15 -19 13 -22 24 -20 57 3 37 7 44
38 59 19 9 77 21 128 27 72 7 99 15 121 33 29 23 29 24 24 103 -9 144 32 320
107 460 36 69 37 71 21 100 -10 17 -55 55 -104 88 -104 69 -124 94 -111 140
11 36 46 54 88 43 15 -4 53 -34 84 -67 58 -62 118 -106 129 -95 3 3 12 1 18
-4 9 -7 25 2 56 30 60 56 165 125 241 159 67 30 215 71 258 71 42 0 53 47 45
189 -7 113 -6 120 14 140 30 30 77 25 104 -11z" fill="#0078D4"/>
<path d="M2658 4145 c-31 -8 -86 -28 -122 -45 -66 -32 -186 -114 -186 -127 1
-5 20 -21 43 -37 23 -17 92 -65 153 -108 61 -43 119 -78 127 -78 9 0 24 11 35
25 16 20 20 47 26 162 4 76 9 157 12 181 7 49 5 49 -88 27z" fill="#0078D4"/>
<path d="M2934 4074 c3 -49 8 -133 12 -186 10 -167 28 -169 228 -28 80 57 146
107 146 111 0 11 -61 60 -124 98 -64 38 -160 75 -225 86 l-43 7 6 -88z" fill="#0078D4"/>
<path d="M2201 3767 c-42 -87 -61 -165 -68 -274 -7 -110 -13 -106 117 -67 47
14 116 34 154 45 86 25 103 34 111 59 10 31 -7 51 -149 179 l-135 121 -30 -63z" fill="#0078D4"/>
<path d="M3320 3719 c-142 -124 -160 -144 -160 -174 0 -15 9 -30 23 -39 18
-11 332 -106 352 -106 10 0 4 167 -9 220 -17 69 -68 192 -81 197 -6 2 -62 -42
-125 -98z" fill="#0078D4"/>
<path d="M2752 3531 c-31 -39 -32 -41 -21 -91 10 -47 14 -52 60 -75 l49 -25
48 24 c44 22 48 28 58 74 10 48 9 53 -20 91 -30 38 -34 40 -87 41 -53 0 -57
-2 -87 -39z" fill="#0078D4"/>
<path d="M2355 3248 c-93 -16 -172 -32 -175 -35 -3 -2 13 -38 35 -80 42 -80
133 -187 199 -235 l39 -28 69 167 c37 92 68 177 68 189 0 22 -34 55 -55 53 -5
-1 -86 -14 -180 -31z" fill="#0078D4"/>
<path d="M3114 3272 c-6 -4 -16 -17 -23 -29 -10 -20 -2 -46 61 -197 63 -154
74 -174 89 -165 38 20 143 126 181 182 40 59 83 145 76 153 -3 3 -354 64 -368
64 -3 0 -10 -4 -16 -8z" fill="#0078D4"/>
<path d="M2786 3093 c-36 -56 -166 -297 -162 -301 16 -15 129 -32 216 -32 87
0 200 17 216 32 6 6 -173 320 -187 329 -30 19 -59 9 -83 -28z" fill="#0078D4"/>
<path d="M273 1127 l-63 -11 0 -368 0 -368 70 0 70 0 0 110 c0 66 4 110 10
110 11 0 114 -127 149 -183 l23 -37 79 0 c43 0 79 3 79 6 0 15 -112 173 -158
224 l-49 55 86 95 c131 143 128 130 30 129 l-84 0 -75 -90 c-41 -49 -78 -89
-82 -89 -5 0 -8 97 -8 215 0 118 -3 214 -7 213 -5 0 -36 -6 -70 -11z" fill="#0078D4"/>
<path d="M1423 1127 l-63 -11 0 -362 0 -362 50 -11 c67 -14 218 -14 261 0 95
32 150 112 157 229 10 182 -73 290 -223 290 -22 0 -55 -4 -73 -9 l-32 -10 0
130 c0 71 -3 128 -7 127 -5 0 -36 -6 -70 -11z m231 -377 c41 -50 46 -142 9
-213 -22 -43 -99 -69 -147 -51 -14 5 -16 28 -16 144 0 156 -5 147 82 149 40 1
50 -3 72 -29z" fill="#0078D4"/>
<path d="M4147 1028 l-48 -10 3 -262 c3 -242 5 -264 24 -301 31 -60 82 -85
175 -85 42 0 90 5 107 11 28 10 31 14 26 42 -13 80 -8 75 -68 64 -46 -9 -59
-7 -81 7 -37 24 -45 54 -45 171 l0 104 88 3 87 3 3 58 3 57 -91 0 -90 0 0 75
c0 85 3 83 -93 63z" fill="#0078D4"/>
<path d="M2096 893 c-36 -9 -94 -54 -119 -91 -38 -57 -50 -106 -45 -191 7
-116 53 -188 147 -227 43 -18 189 -20 257 -3 39 10 45 15 40 33 -2 11 -8 38
-11 58 -7 35 -8 36 -33 26 -46 -18 -163 -15 -199 5 -27 14 -63 61 -63 82 0 3
77 5 170 5 l170 0 0 45 c0 117 -47 211 -123 246 -40 18 -142 24 -191 12z m145
-132 c17 -17 29 -40 29 -55 l0 -26 -94 0 c-52 0 -98 4 -101 10 -3 5 1 23 10
39 34 67 106 82 156 32z" fill="#0078D4"/>
<path d="M2655 896 c-5 -2 -36 -9 -67 -16 l-58 -13 0 -244 0 -243 70 0 70 0 2
198 3 197 81 -1 82 -1 11 55 c6 31 9 57 7 59 -6 6 -188 14 -201 9z"/>
<path d="M3055 895 c-5 -2 -31 -6 -57 -10 l-48 -6 0 -250 0 -249 70 0 70 0 0
200 0 200 51 0 c98 0 109 -24 109 -247 l0 -153 71 0 71 0 -4 188 c-3 173 -5
191 -27 236 -34 69 -94 96 -211 95 -47 0 -89 -2 -95 -4z" fill="#0078D4"/>
<path d="M3667 890 c-148 -47 -211 -275 -117 -424 43 -67 110 -96 226 -97 50
0 110 4 132 11 45 12 48 18 36 90 l-6 36 -72 -15 c-90 -18 -153 -5 -191 41
-47 56 -43 58 146 58 l172 0 -6 71 c-8 96 -45 171 -100 206 -34 21 -56 27
-117 29 -41 2 -88 -1 -103 -6z m134 -110 c21 -12 49 -60 49 -85 0 -12 -16 -15
-101 -15 l-101 0 6 28 c15 61 93 100 147 72z" fill="#0078D4"/>
<path d="M4645 881 c-45 -20 -101 -79 -121 -127 -37 -89 -25 -222 27 -294 46
-63 112 -90 222 -90 49 0 108 5 133 11 l45 12 -6 51 c-4 28 -9 52 -10 54 -2 2
-36 -2 -77 -9 -55 -9 -83 -9 -114 0 -47 12 -94 54 -94 82 0 18 11 19 165 19
l165 0 0 58 c0 119 -45 200 -132 236 -51 22 -153 20 -203 -3z m148 -102 c26
-12 44 -40 49 -74 3 -19 -3 -20 -94 -23 -81 -2 -98 0 -98 12 0 69 77 115 143
85z" fill="#0078D4"/>
<path d="M5174 882 c-58 -28 -84 -68 -84 -132 0 -89 29 -121 153 -170 67 -26
91 -53 76 -83 -10 -18 -18 -19 -92 -14 -45 3 -94 9 -108 12 -24 6 -27 4 -33
-33 -3 -22 -8 -47 -11 -54 -9 -23 64 -39 171 -39 153 -1 218 44 218 151 0 74
-23 104 -112 145 -42 20 -87 41 -99 47 -26 13 -30 49 -8 68 15 13 124 10 156
-4 14 -6 19 3 29 44 9 37 9 55 2 62 -6 6 -58 13 -114 15 -86 3 -110 1 -144
-15z" fill="#0078D4"/>
<path d="M770 708 c1 -237 14 -278 105 -319 47 -22 172 -25 272 -8 l63 11 0
249 0 249 -70 0 -70 0 0 -199 0 -199 -39 -7 c-48 -8 -90 9 -108 45 -9 17 -13
78 -13 193 l0 167 -70 0 -70 0 0 -182z" fill="#0078D4"/>

</svg>
